<svg width="140" height="96" viewBox="0 0 140 96" fill="none" xmlns="http://www.w3.org/2000/svg">
<path d="M118.712 95.808C114.957 95.808 111.288 95.168 107.704 93.888C104.205 92.5227 101.304 90.5173 99 87.872L103.992 80.96C106.211 83.0933 108.472 84.7147 110.776 85.824C113.165 86.848 115.512 87.36 117.816 87.36C119.523 87.36 121.101 87.1467 122.552 86.72C124.003 86.2933 125.155 85.6107 126.008 84.672C126.947 83.648 127.416 82.2827 127.416 80.576C127.416 78.6987 126.776 77.2053 125.496 76.096C124.301 74.9867 122.723 74.0907 120.76 73.408C118.883 72.7253 116.877 72.0853 114.744 71.488C110.392 70.0373 107.064 68.032 104.76 65.472C102.456 62.912 101.304 59.7973 101.304 56.128C101.304 53.312 101.987 50.7093 103.352 48.32C104.803 45.8453 106.893 43.84 109.624 42.304C112.44 40.768 115.896 40 119.992 40C123.661 40 126.947 40.4693 129.848 41.408C132.749 42.2613 135.48 43.712 138.04 45.76L133.304 53.184C131.768 51.5627 129.933 50.368 127.8 49.6C125.667 48.832 123.747 48.4053 122.04 48.32C120.589 48.2347 119.181 48.448 117.816 48.96C116.536 49.472 115.469 50.1973 114.616 51.136C113.763 52.0747 113.336 53.184 113.336 54.464C113.336 56.256 113.933 57.7067 115.128 58.816C116.323 59.9253 117.859 60.8213 119.736 61.504C121.699 62.1013 123.619 62.7413 125.496 63.424C128.141 64.192 130.488 65.216 132.536 66.496C134.584 67.776 136.205 69.3547 137.4 71.232C138.68 73.1093 139.32 75.456 139.32 78.272C139.32 81.4293 138.552 84.3733 137.016 87.104C135.565 89.7493 133.304 91.8827 130.232 93.504C127.245 95.04 123.405 95.808 118.712 95.808Z" fill="black"/>
<path d="M0.312012 96V0.511963H0.440012L48.952 69.376L43.704 68.352L92.088 0.511963H92.344V96H80.056V28.672L80.824 34.944L45.88 84.352H45.624L10.168 34.944L12.344 29.184V96H0.312012Z" fill="black"/>
</svg>
