<svg width="189" height="40" viewBox="0 0 189 40" fill="none" xmlns="http://www.w3.org/2000/svg">
<g clip-path="url(#clip0_844_3)">
<path d="M154.72 18.0062L152.007 16.1081C149.413 14.2956 147.857 11.2348 147.857 7.95741V0.0175781H154.72V18.0062Z" fill="#363634"/>
<path d="M161.591 38.8444H154.729V18.0059L157.487 19.9666C160.052 21.7848 161.591 24.8285 161.591 28.0831V38.8501V38.8444Z" fill="#363634"/>
<path d="M168.437 19.4136L165.724 17.5155C163.13 15.703 161.574 12.6422 161.574 9.36479V0H168.437V19.4136Z" fill="#363634"/>
<path d="M175.298 38.8447H168.436V19.4141L171.194 21.3748C173.759 23.193 175.298 26.2367 175.298 29.4913V38.8504V38.8447Z" fill="#363634"/>
<path d="M182.138 20.8385L179.425 18.9405C176.831 17.1279 175.275 14.0671 175.275 10.7897V0H182.138V20.8385Z" fill="#363634"/>
<path d="M188.999 38.8446H182.137V20.8389L184.895 22.7996C187.46 24.6178 188.999 27.6615 188.999 30.9161V38.8503V38.8446Z" fill="#363634"/>
<path d="M91.6113 30.3413C90.1066 31.789 88.0604 32.473 85.5866 32.473C81.1237 32.473 78.0914 28.808 78.0914 24.6073V24.499C78.0914 20.2982 80.8558 16.7415 85.4783 16.7415C87.9065 16.7415 89.4739 17.4312 91.5486 18.9759L95.2193 12.9113C92.6316 10.9448 89.3143 9.77637 85.5866 9.77637C76.712 9.77637 70.123 16.4223 70.123 24.6073V24.7156C70.123 32.9005 76.6607 39.4382 85.484 39.4382C89.2402 39.4382 92.586 38.2469 95.1965 36.252L91.617 30.3413H91.6113Z" fill="#363634"/>
<path d="M35.5273 24.7156V24.6073C35.5273 16.4223 42.1163 9.77637 50.9909 9.77637C59.8655 9.77637 66.3519 16.314 66.3519 24.499V24.6073C66.3519 32.7922 59.7629 39.4382 50.8883 39.4382C42.0137 39.4382 35.5273 32.9005 35.5273 24.7156ZM58.3779 24.7156V24.6073C58.3779 20.4065 55.3513 16.7415 50.8826 16.7415C46.414 16.7415 43.4957 20.3039 43.4957 24.499V24.6073C43.4957 28.808 46.5223 32.473 50.9909 32.473C55.4596 32.473 58.3779 28.9106 58.3779 24.7156Z" fill="#363634"/>
<path d="M131.699 38.8442H139.776V0H131.699V38.8442Z" fill="#363634"/>
<path d="M30.8246 0H22.7479V11.4509C20.6105 10.3851 18.1425 9.77517 15.4693 9.77517C6.58898 9.78087 0 16.4212 0 24.6061V24.7144C0 32.8993 6.53768 39.437 15.361 39.437C17.7036 39.437 20.7302 38.6504 22.7479 36.8265V38.7986H30.8246V0ZM15.4636 32.4718C11.0006 32.4718 7.96833 28.8068 7.96833 24.6061V24.4978C7.96833 20.297 10.7327 16.7403 15.3553 16.7403C19.9778 16.7403 22.8505 20.4053 22.8505 24.6061V24.7144C22.8505 28.9151 20.0861 32.4718 15.4636 32.4718Z" fill="#363634"/>
<path d="M96.6465 24.7156V24.6073C96.6465 16.4223 103.235 9.77637 112.11 9.77637C120.985 9.77637 127.471 16.314 127.471 24.499V24.6073C127.471 32.7922 120.882 39.4382 112.007 39.4382C103.133 39.4382 96.6465 32.9005 96.6465 24.7156ZM119.497 24.7156V24.6073C119.497 20.4065 116.47 16.7415 112.002 16.7415C107.533 16.7415 104.615 20.3039 104.615 24.499V24.6073C104.615 28.808 107.641 32.473 112.11 32.473C116.579 32.473 119.497 28.9106 119.497 24.7156Z" fill="#363634"/>
</g>
<defs>
<clipPath id="clip0_844_3">
<rect width="189" height="39.437" fill="white"/>
</clipPath>
</defs>
</svg>
